<svg xmlns:dc="http://purl.org/dc/elements/1.1/" xmlns:cc="http://creativecommons.org/ns#" xmlns:rdf="http://www.w3.org/1999/02/22-rdf-syntax-ns#" xmlns:svg="http://www.w3.org/2000/svg" xmlns="http://www.w3.org/2000/svg" xmlns:sodipodi="http://sodipodi.sourceforge.net/DTD/sodipodi-0.dtd" xmlns:inkscape="http://www.inkscape.org/namespaces/inkscape" fill="#000000" version="1.1" x="0px" y="0px" viewBox="0 0 100 125"><path style="font-size:medium;font-style:normal;font-variant:normal;font-weight:normal;font-stretch:normal;text-indent:0;text-align:start;text-decoration:none;line-height:normal;letter-spacing:normal;word-spacing:normal;text-transform:none;direction:ltr;block-progression:tb;writing-mode:lr-tb;text-anchor:start;baseline-shift:baseline;opacity:1;color:#000000;fill:#000000;fill-opacity:1;stroke:none;stroke-width:6;marker:none;visibility:visible;display:inline;overflow:visible;enable-background:accumulate;font-family:Sans;-inkscape-font-specification:Sans" d="M 49.90625 14 A 3.0003 3.0003 0 0 0 48.15625 14.65625 L 6.15625 47.65625 A 3.0003 3.0003 0 1 0 9.84375 52.34375 L 50 20.78125 L 78 42.78125 L 78 80 L 64.28125 80 L 64.28125 68.90625 C 64.28125 61.050449 57.855409 54.625 50 54.625 C 42.144591 54.625 35.71875 61.050449 35.71875 68.90625 L 35.71875 80 L 22 80 L 22 55 A 3.0003 3.0003 0 1 0 16 55 L 16 83 A 3.0003 3.0003 0 0 0 19 86 L 38.71875 86 A 3.0003 3.0003 0 0 0 41.71875 83 L 41.71875 68.90625 C 41.71875 64.270247 45.365227 60.625 50 60.625 C 54.634773 60.625 58.28125 64.270247 58.28125 68.90625 L 58.28125 83 A 3.0003 3.0003 0 0 0 61.28125 86 L 81 86 A 3.0003 3.0003 0 0 0 84 83 L 84 47.5 L 90.15625 52.34375 A 3.0003 3.0003 0 1 0 93.84375 47.65625 L 84 39.9375 L 84 19 A 3.0003 3.0003 0 0 0 81 16 L 67 16 A 3.0003 3.0003 0 0 0 66.6875 16 A 3.0003 3.0003 0 0 0 64 19 L 64 24.21875 L 51.84375 14.65625 A 3.0003 3.0003 0 0 0 49.90625 14 z M 70 22 L 78 22 L 78 35.21875 L 70 28.9375 L 70 22 z "/><text x="0" y="115" fill="#000000" font-size="5px" font-weight="bold" font-family="'Helvetica Neue', Helvetica, Arial-Unicode, Arial, Sans-serif">Created by hans draiman</text><text x="0" y="120" fill="#000000" font-size="5px" font-weight="bold" font-family="'Helvetica Neue', Helvetica, Arial-Unicode, Arial, Sans-serif">from the Noun Project</text></svg>