<svg xmlns="http://www.w3.org/2000/svg" version="1.1" xmlns:xlink="http://www.w3.org/1999/xlink" xmlns:svgjs="http://svgjs.dev/svgjs" width="1000" height="191" viewBox="0 0 1000 191"><g transform="matrix(1,0,0,1,-0.6060606060606233,-0.3483456690511417)"><svg viewBox="0 0 396 76" data-background-color="#1ebbd7" preserveAspectRatio="xMidYMid meet" height="191" width="1000" xmlns="http://www.w3.org/2000/svg" xmlns:xlink="http://www.w3.org/1999/xlink"><g id="tight-bounds" transform="matrix(1,0,0,1,0.2400000000000091,0.13860874789469335)"><svg viewBox="0 0 395.52 75.72278250421064" height="75.72278250421064" width="395.52"><g><svg viewBox="0 0 532.9519555368709 102.03429665835411" height="75.72278250421064" width="395.52"><g><rect width="4.222095106395292" height="102.03429665835411" x="122.15725543991192" y="0" fill="#ffffff" opacity="1" stroke-width="0" stroke="transparent" fill-opacity="1" class="rect-o-0" data-fill-palette-color="primary" rx="1%" id="o-0" data-palette-color="#ffffff"></rect></g><g transform="matrix(1,0,0,1,137.4319555368708,0.25381665835411127)"><svg viewBox="0 0 395.52 101.52666334164589" height="101.52666334164589" width="395.52"><g id="textblocktransform"><svg viewBox="0 0 395.52 101.52666334164589" height="101.52666334164589" width="395.52" id="textblock"><g><svg viewBox="0 0 395.52 101.52666334164589" height="101.52666334164589" width="395.52"><g transform="matrix(1,0,0,1,0,0)"><svg width="395.52" viewBox="0.2500009536743164 -34.400001525878906 300.75 73.60000610351562" height="101.52666334164589" data-palette-color="#ffffff"><svg></svg><svg></svg><g class="wordmark-text-0" data-fill-palette-color="primary" id="text-0"><path xmlns="http://www.w3.org/2000/svg" d="M41.7 0h-12.15l-4.45-20.95h-0.2l-4.45 20.95h-12.15l-8.05-34.4h11.5l3.95 19.5h0.2l3.9-19.5h10.9l4.15 19.5h0.2l3.7-19.5h11zM88.45 0h-11.7l-1.45-4.85h-12.05l-1.45 4.85h-11.3l12.55-34.4h12.85zM69.2-24.8l-3.65 12.25h7.45l-3.6-12.25zM120.2-25.6h-11.25v25.6h-11.05v-25.6h-11.3v-8.8h33.6zM125.25 0v-34.4h29.75v8.25h-18.7v4.75h16v7.9h-16v5.25h19.05v8.25zM194-23.85c0 2.1-0.567 4-1.7 5.7-1.133 1.7-2.783 2.95-4.95 3.75v0l7.65 14.4h-12.4l-6.1-12.55h-4.1v12.55h-11.05v-34.4h21.05c2.467 0 4.577 0.473 6.33 1.42 1.747 0.953 3.063 2.237 3.95 3.85 0.88 1.62 1.32 3.38 1.32 5.28zM182.75-23.4c0-0.9-0.3-1.65-0.9-2.25-0.6-0.6-1.333-0.9-2.2-0.9v0h-7.25v6.35h7.25c0.867 0 1.6-0.31 2.2-0.93 0.6-0.613 0.9-1.37 0.9-2.27z" fill="#ffffff" fill-rule="nonzero" stroke="none" stroke-width="1" stroke-linecap="butt" stroke-linejoin="miter" stroke-miterlimit="10" stroke-dasharray="" stroke-dashoffset="0" font-family="none" font-weight="none" font-size="none" text-anchor="none" style="mix-blend-mode: normal" data-fill-palette-color="primary" opacity="1"></path><path xmlns="http://www.w3.org/2000/svg" d="M41.7 38.6h-12.15l-4.45-20.95h-0.2l-4.45 20.95h-12.15l-8.05-34.4h11.5l3.95 19.5h0.2l3.9-19.5h10.9l4.15 19.5h0.2l3.7-19.5h11zM88.45 38.6h-11.7l-1.45-4.85h-12.05l-1.45 4.85h-11.3l12.55-34.4h12.85zM69.2 13.8l-3.65 12.25h7.45l-3.6-12.25zM125.25 14.75c0 2.1-0.567 4-1.7 5.7-1.133 1.7-2.783 2.95-4.95 3.75v0l7.65 14.4h-12.4l-6.1-12.55h-4.1v12.55h-11.05v-34.4h21.05c2.467 0 4.577 0.473 6.33 1.42 1.747 0.953 3.063 2.237 3.95 3.85 0.88 1.62 1.32 3.38 1.32 5.28zM114 15.2c0-0.9-0.3-1.65-0.9-2.25-0.6-0.6-1.333-0.9-2.2-0.9v0h-7.25v6.35h7.25c0.867 0 1.6-0.31 2.2-0.93 0.6-0.613 0.9-1.37 0.9-2.27zM164.15 14.75c0 2.1-0.567 4-1.7 5.7-1.133 1.7-2.783 2.95-4.95 3.75v0l7.65 14.4h-12.4l-6.1-12.55h-4.1v12.55h-11.05v-34.4h21.05c2.467 0 4.577 0.473 6.33 1.42 1.747 0.953 3.063 2.237 3.95 3.85 0.88 1.62 1.32 3.38 1.32 5.28zM152.9 15.2c0-0.9-0.3-1.65-0.9-2.25-0.6-0.6-1.333-0.9-2.2-0.9v0h-7.25v6.35h7.25c0.867 0 1.6-0.31 2.2-0.93 0.6-0.613 0.9-1.37 0.9-2.27zM181.95 38.6h-11.05v-34.4h11.05zM206.95 3.6c5.933 0 10.517 1.517 13.75 4.55 3.233 3.033 4.85 7.45 4.85 13.25v0c0 5.8-1.617 10.217-4.85 13.25-3.233 3.033-7.817 4.55-13.75 4.55v0c-5.933 0-10.507-1.51-13.72-4.53-3.22-3.013-4.83-7.437-4.83-13.27v0c0-5.833 1.61-10.26 4.83-13.28 3.213-3.013 7.787-4.52 13.72-4.52zM206.95 11.85c-2.367 0-4.167 0.717-5.4 2.15-1.233 1.433-1.85 3.367-1.85 5.8v0 3.2c0 2.433 0.617 4.367 1.85 5.8 1.233 1.433 3.033 2.15 5.4 2.15v0c2.367 0 4.177-0.717 5.43-2.15 1.247-1.433 1.87-3.367 1.87-5.8v0-3.2c0-2.433-0.623-4.367-1.87-5.8-1.253-1.433-3.063-2.15-5.43-2.15zM264.15 14.75c0 2.1-0.567 4-1.7 5.7-1.133 1.7-2.783 2.95-4.95 3.75v0l7.65 14.4h-12.4l-6.1-12.55h-4.1v12.55h-11.05v-34.4h21.05c2.467 0 4.577 0.473 6.33 1.42 1.747 0.953 3.063 2.237 3.95 3.85 0.88 1.62 1.32 3.38 1.32 5.28zM252.9 15.2c0-0.9-0.3-1.65-0.9-2.25-0.6-0.6-1.333-0.9-2.2-0.9v0h-7.25v6.35h7.25c0.867 0 1.6-0.31 2.2-0.93 0.6-0.613 0.9-1.37 0.9-2.27zM284.85 3.6c4.4 0 8.017 0.89 10.85 2.67 2.833 1.787 4.283 4.43 4.35 7.93v0 0.6h-10.35v-0.2c0-1-0.367-1.833-1.1-2.5-0.733-0.667-1.85-1-3.35-1v0c-1.467 0-2.59 0.217-3.37 0.65-0.787 0.433-1.18 0.967-1.18 1.6v0c0 0.9 0.533 1.567 1.6 2 1.067 0.433 2.783 0.883 5.15 1.35v0c2.767 0.567 5.043 1.157 6.83 1.77 1.78 0.62 3.337 1.63 4.67 3.03 1.333 1.4 2.017 3.3 2.05 5.7v0c0 4.067-1.373 7.083-4.12 9.05-2.753 1.967-6.43 2.95-11.03 2.95v0c-5.367 0-9.54-0.9-12.52-2.7-2.987-1.8-4.48-4.983-4.48-9.55v0h10.45c0 1.733 0.45 2.89 1.35 3.47 0.9 0.587 2.3 0.88 4.2 0.88v0c1.4 0 2.56-0.15 3.48-0.45 0.913-0.3 1.37-0.917 1.37-1.85v0c0-0.833-0.507-1.46-1.52-1.88-1.02-0.413-2.68-0.853-4.98-1.32v0c-2.8-0.6-5.117-1.227-6.95-1.88-1.833-0.647-3.433-1.72-4.8-3.22-1.367-1.5-2.05-3.533-2.05-6.1v0c0-3.767 1.46-6.543 4.38-8.33 2.913-1.78 6.603-2.67 11.07-2.67z" fill="#ffffff" fill-rule="nonzero" stroke="none" stroke-width="1" stroke-linecap="butt" stroke-linejoin="miter" stroke-miterlimit="10" stroke-dasharray="" stroke-dashoffset="0" font-family="none" font-weight="none" font-size="none" text-anchor="none" style="mix-blend-mode: normal" data-fill-palette-color="primary" opacity="1"></path></g></svg></g></svg></g></svg></g></svg></g><g transform="matrix(1,0,0,1,0,0.25381665835411127)"><svg viewBox="0 0 111.10465044934833 101.52666334164589" height="101.52666334164589" width="111.10465044934833"><g><svg xmlns="http://www.w3.org/2000/svg" xmlns:xlink="http://www.w3.org/1999/xlink" version="1.1" x="0" y="0" viewBox="3 4 58 53" style="enable-background:new 0 0 64 64;" xml:space="preserve" height="101.52666334164589" width="111.10465044934833" class="icon-icon-0" data-fill-palette-color="accent" id="icon-0"><g fill="#ffffff" data-fill-palette-color="accent"><path d="M30 9.816V12h2V9.816C33.161 9.402 34 8.302 34 7c0-1.654-1.346-3-3-3s-3 1.346-3 3C28 8.302 28.839 9.402 30 9.816z" fill="#ffffff" data-fill-palette-color="accent"></path><path d="M22.586 53l-4.092-4.092c-0.368 0.67-0.916 1.218-1.586 1.586L19.414 53H22.586z" fill="#ffffff" data-fill-palette-color="accent"></path><path d="M7.292 8.557c-0.546 0.386-0.967 0.947-1.159 1.619L4.469 16H8.78L7.292 8.557z" fill="#ffffff" data-fill-palette-color="accent"></path><circle cx="15" cy="47" r="2.0" fill="#ffffff" data-fill-palette-color="accent"></circle><path d="M3 56c0 0.552 0.449 1 1 1h19c0.551 0 1-0.448 1-1v-1H3.024C3.017 55.333 3 55.666 3 56z" fill="#ffffff" data-fill-palette-color="accent"></path><path d="M33.432 20.329L33.82 18H3.897l-0.62 2.168C3.107 20.765 3.024 21.38 3.011 22h28.448C32.44 22 33.27 21.297 33.432 20.329z" fill="#ffffff" data-fill-palette-color="accent"></path><path d="M27 12h1v-1.026C27.048 10.254 26.361 9.207 26.11 8H26v3C26 11.552 26.449 12 27 12z" fill="#ffffff" data-fill-palette-color="accent"></path><polygon points="20.78,16 19.18,8 17.22,8 18.82,16  " fill="#ffffff" data-fill-palette-color="accent"></polygon><polygon points="12.78,16 11.18,8 9.22,8 10.82,16  " fill="#ffffff" data-fill-palette-color="accent"></polygon><polygon points="16.78,16 15.18,8 13.22,8 14.82,16  " fill="#ffffff" data-fill-palette-color="accent"></polygon><path d="M15.672 37.257L24 45.586v-3.172l-6.084-6.084C17.139 36.579 16.39 36.89 15.672 37.257z" fill="#ffffff" data-fill-palette-color="accent"></path><path d="M46 11V8H36v4h9C45.551 12 46 11.552 46 11z" fill="#ffffff" data-fill-palette-color="accent"></path><path d="M35.404 20.657C35.082 22.595 33.422 24 31.458 24H3.25c0.379 1.431 1.183 2.725 2.348 3.695 2.154 1.796 2.901 4.751 1.86 7.354l-0.815 2.037C4.599 42.196 3.417 47.538 3.098 53h1.936c0.076-1.999 0.366-4.124 0.891-6.348 1.604-6.784 7.347-11.965 14.291-12.89l4.93-0.658c0.149-0.279 0.291-0.562 0.468-0.828C27.399 29.599 30.387 28 33.605 28H57c1.103 0 2-0.897 2-2v-8H35.847L35.404 20.657zM40 20c1.654 0 3 1.346 3 3s-1.346 3-3 3-3-1.346-3-3S38.346 20 40 20z" fill="#ffffff" data-fill-palette-color="accent"></path><circle cx="40" cy="23" r="1.0" fill="#ffffff" data-fill-palette-color="accent"></circle><path d="M9.493 43.079l2.014 2.013c0.368-0.67 0.916-1.218 1.586-1.586l-2.303-2.303C10.311 41.793 9.878 42.42 9.493 43.079z" fill="#ffffff" data-fill-palette-color="accent"></path><path d="M56 8h-8v3c0 1.654-1.346 3-3 3H27c-1.654 0-3-1.346-3-3V8h-2.78l1.6 8H61v-3C61 10.243 58.757 8 56 8z" fill="#ffffff" data-fill-palette-color="accent"></path><path d="M7.871 47.113c-0.023 0.096-0.038 0.188-0.06 0.283L13.414 53h3.172l-2.047-2.047c-1.834-0.214-3.279-1.659-3.493-3.493l-2.49-2.49C8.276 45.661 8.045 46.376 7.871 47.113z" fill="#ffffff" data-fill-palette-color="accent"></path><path d="M7.034 53h3.552l-3.227-3.227C7.185 50.885 7.076 51.962 7.034 53z" fill="#ffffff" data-fill-palette-color="accent"></path><path d="M20.206 35.792L24 39.586v-1.98c0-0.809 0.122-1.601 0.319-2.373l-3.839 0.512C20.387 35.757 20.298 35.778 20.206 35.792z" fill="#ffffff" data-fill-palette-color="accent"></path><path d="M12.153 39.739l3.308 3.308c1.834 0.214 3.279 1.659 3.493 3.493L24 51.586v-3.172L13.902 38.316C13.284 38.747 12.7 39.222 12.153 39.739z" fill="#ffffff" data-fill-palette-color="accent"></path><path d="M42 32.172c0 1.811-0.719 3.548-2 4.828s-3.017 2-4.828 2H26v4h9.171c2.892 0 5.611-1.126 7.657-3.171C44.874 37.784 46 35.064 46 32.172V30h-4V32.172z" fill="#ffffff" data-fill-palette-color="accent"></path></g></svg></g></svg></g></svg></g><defs></defs></svg><rect width="395.52" height="75.72278250421064" fill="none" stroke="none" visibility="hidden"></rect></g></svg></g></svg>